<svg width="53.158mm" height="54.901mm" enable-background="new" version="1.1" viewBox="0 0 53.158 54.901" xmlns="http://www.w3.org/2000/svg" xmlns:xlink="http://www.w3.org/1999/xlink">
 <defs>
  <linearGradient id="linearGradient919">
   <stop stop-color="#fff" offset="0"/>
   <stop offset="1"/>
  </linearGradient>
  <linearGradient id="linearGradient899" x1="44.72" x2="50.668" y1="41.022" y2="41.022" gradientUnits="userSpaceOnUse" spreadMethod="reflect">
   <stop offset="0"/>
   <stop stop-color="#fff" offset="1"/>
  </linearGradient>
  <radialGradient id="radialGradient907" cx="50.697" cy="21.233" r="4.5612" gradientTransform="matrix(1.5509 0 0 2.4513 -28.023 -31.026)" gradientUnits="userSpaceOnUse" xlink:href="#linearGradient919"/>
  <filter id="filter966" color-interpolation-filters="sRGB">
   <feBlend in2="BackgroundImage" mode="overlay"/>
  </filter>
  <linearGradient id="linearGradient879" x1=".685" x2="15.097" y1="28.136" y2="28.136" gradientUnits="userSpaceOnUse">
   <stop stop-color="#1b3775" offset="0"/>
   <stop stop-color="#55add0" offset="1"/>
  </linearGradient>
  <linearGradient id="linearGradient889" x1="14.419" x2="36.47" y1="27.267" y2="27.267" gradientUnits="userSpaceOnUse">
   <stop stop-color="#1d771d" offset="0"/>
   <stop stop-color="#63da63" offset="1"/>
  </linearGradient>
  <linearGradient id="linearGradient897" x1="135.34" x2="189.72" y1="106.34" y2="106.34" gradientUnits="userSpaceOnUse">
   <stop stop-color="#ffbf1d" offset="0"/>
   <stop stop-color="#ffec5d" offset="1"/>
  </linearGradient>
  <radialGradient id="radialGradient909" cx="50.272" cy="21.85" r="4.5612" gradientTransform="matrix(3.3493 -2.6744e-7 2.6288e-7 3.2921 -118.1 -50.383)" gradientUnits="userSpaceOnUse" xlink:href="#linearGradient919"/>
  <linearGradient id="linearGradient918" x1="50.146" x2="63.571" y1="41.022" y2="41.022" gradientUnits="userSpaceOnUse" spreadMethod="reflect" xlink:href="#linearGradient919"/>
 </defs>
 <g transform="translate(-.685 -.685)">
  <path d="m8.6969 0.685c-5.3413 7.9856-8.0119 17.188-8.0119 27.607 0 10.793 2.6706 19.891 8.0119 27.295h6.3996c-3.5158-8.152-5.2736-17.25-5.2736-27.295s1.7462-19.247 5.239-27.607h-4.4266z" fill="url(#linearGradient879)"/>
  <path d="m16.899 24.316h17.14q0.94258 0 1.5875 0.62012 0.84336 0.84336 0.84336 2.3316 0 1.91-1.2898 2.6541-0.5209 0.29766-1.141 0.29766h-17.14q-0.96738 0-1.6123-0.64492-0.86816-0.84336-0.86816-2.3316 0-1.9844 1.3891-2.6789 0.47129-0.24805 1.0914-0.24805z" fill="url(#linearGradient889)"/>
  <path d="m49.294 17.514c-1.2228 0-2.2824 0.52259-3.1791 1.5679-0.92935 1.1056-1.3942 2.4422-1.3942 4.0101 0 1.8895 0.61168 3.4074 1.8345 4.5532 0.79892 0.74375 1.6957 1.1157 2.6903 1.1157 1.8587 0 3.2119-0.99531 4.0597-2.9853 0.3587-0.84426 0.53795-1.7185 0.53795-2.6231 0-2.3519-0.87232-4.0505-2.6169-5.0958-0.61957-0.36183-1.2637-0.5426-1.9322-0.5426z" fill="url(#radialGradient909)"/>
  <path d="m49.294 35.398c-1.2228 0-2.2824 0.52259-3.1791 1.5679-0.92935 1.1056-1.3942 2.4422-1.3942 4.0101 0 1.8895 0.61168 3.4074 1.8345 4.5532 0.79892 0.74375 1.6957 1.1157 2.6903 1.1157 1.8587 0 3.2119-0.99531 4.0597-2.9854 0.3587-0.84426 0.53795-1.7185 0.53795-2.6231 0-2.372-0.87232-4.0706-2.6169-5.0958-0.61957-0.36182-1.2637-0.5426-1.9322-0.5426z" fill="url(#linearGradient918)"/>
  <path transform="scale(.26458)" d="m135.47 2.5898c13.201 31.597 19.801 66.377 19.801 104.34 0 37.963-6.6437 72.349-19.932 103.16h24.188c7.0197-9.7298 12.816-20.237 17.395-31.516-1.4884-0.82608-2.8983-1.8348-4.1856-3.0332l-8e-3 -6e-3 -8e-3 -8e-3c-5.5673-5.2165-8.4219-12.493-8.4219-20.654 0-6.8598 2.157-13.177 6.377-18.197l0.0156-0.0215 0.0156-0.0156c4.08-4.7558 9.6299-7.5742 15.598-7.5742 0.81565 0 1.6282 0.0592 2.4336 0.16797 0.5192-5.2572 0.84383-10.639 0.98438-16.137-1.1696 0.21336-2.3708 0.33399-3.6035 0.33399-4.9369 0-9.6477-2.0072-13.383-5.4844l-8e-3 -8e-3 -8e-3 -6e-3c-5.5673-5.2165-8.4219-12.495-8.4219-20.656 0-6.8598 2.157-13.175 6.377-18.195l0.0156-0.01563 0.0156-0.02148c3.7536-4.3753 8.7512-7.104 14.174-7.5137-4.8573-21.283-13.307-40.929-25.353-58.939h-24z" fill="url(#linearGradient897)"/>
 </g>
 <g transform="translate(-.685 -.685)" display="none" filter="url(#filter966)" opacity=".6">
  <path d="m49.294 17.514c-1.2228 0-2.2824 0.52259-3.1791 1.5679-0.92935 1.1056-1.3942 2.4422-1.3942 4.0101 0 1.8895 0.61168 3.4074 1.8345 4.5532 0.79892 0.74375 1.6957 1.1157 2.6903 1.1157 1.8587 0 3.2119-0.99531 4.0597-2.9853 0.3587-0.84426 0.53795-1.7185 0.53795-2.6231 0-2.3519-0.87232-4.0505-2.6169-5.0958-0.61957-0.36183-1.2637-0.5426-1.9322-0.5426z" display="inline" fill="url(#radialGradient907)"/>
  <path d="m49.294 35.398c-1.2228 0-2.2824 0.52259-3.1791 1.5679-0.92935 1.1056-1.3942 2.4422-1.3942 4.0101 0 1.8895 0.61168 3.4074 1.8345 4.5532 0.79892 0.74375 1.6957 1.1157 2.6903 1.1157 1.8587 0 3.2119-0.99531 4.0597-2.9854 0.3587-0.84426 0.53795-1.7185 0.53795-2.6231 0-2.372-0.87232-4.0706-2.6169-5.0958-0.61957-0.36182-1.2637-0.5426-1.9322-0.5426z" display="inline" fill="url(#linearGradient899)"/>
 </g>
</svg>
