<?xml version="1.0" encoding="UTF-8" standalone="no"?>
<svg
        xmlns:dc="http://purl.org/dc/elements/1.1/"
        xmlns:cc="http://creativecommons.org/ns#"
        xmlns:rdf="http://www.w3.org/1999/02/22-rdf-syntax-ns#"
        xmlns="http://www.w3.org/2000/svg"
        xmlns:sodipodi="http://sodipodi.sourceforge.net/DTD/sodipodi-0.dtd"
        xmlns:inkscape="http://www.inkscape.org/namespaces/inkscape"
        width="144.95607mm"
        height="57.494839mm"
        viewBox="0 0 144.95607 57.494839"
        version="1.1"
        id="svg8"
        sodipodi:docname="hissp.svg"
        inkscape:version="1.0.1 (3bc2e813f5, 2020-09-07)">
  <defs
     id="defs2" />
  <sodipodi:namedview
     id="base"
     pagecolor="#ffffff"
     bordercolor="#666666"
     borderopacity="1.0"
     inkscape:pageopacity="0.0"
     inkscape:pageshadow="2"
     inkscape:zoom="0.70710678"
     inkscape:cx="258.53373"
     inkscape:cy="315.70781"
     inkscape:document-units="mm"
     inkscape:current-layer="text12"
     inkscape:document-rotation="0"
     showgrid="false"
     inkscape:window-width="1765"
     inkscape:window-height="1005"
     inkscape:window-x="139"
     inkscape:window-y="0"
     inkscape:window-maximized="0"
     inkscape:snap-nodes="true"
     inkscape:snap-bbox="true"
     inkscape:bbox-paths="true"
     inkscape:snap-midpoints="true" />
  <metadata
     id="metadata5">
    <rdf:RDF>
      <cc:Work
         rdf:about="">
        <dc:format>image/svg+xml</dc:format>
        <dc:type
           rdf:resource="http://purl.org/dc/dcmitype/StillImage" />
        <dc:title></dc:title>
      </cc:Work>
    </rdf:RDF>
  </metadata>
  <g
     inkscape:label="Layer 1"
     inkscape:groupmode="layer"
     id="layer1">
    <g
       aria-label="((–):ssp)"
       id="text12"
       style="font-style:normal;font-variant:normal;font-weight:bold;font-stretch:normal;font-size:50.8px;line-height:1.25;font-family:'Myanmar Text';-inkscape-font-specification:'Myanmar Text Bold';stroke-width:0.264583">
      <path
         id="path858-9"
         style="font-style:normal;font-variant:normal;font-weight:bold;font-stretch:normal;font-size:50.8px;line-height:1.25;font-family:'Myanmar Text';-inkscape-font-specification:'Myanmar Text Bold';fill:#ffd43c;fill-opacity:1;stroke:#ffffff;stroke-width:1.37;stroke-miterlimit:4;stroke-dasharray:none;stroke-opacity:1"
         d="m 42.208044,0.685 c 5.341276,7.9856366 8.011914,17.187835 8.011914,27.606594 0,10.793091 -2.670638,19.891306 -8.011914,27.294656 h -1.938383 -4.461226 c 3.515775,-8.152007 5.27358,-17.250222 5.27358,-27.294656 0,-10.044433 -1.746235,-19.246631 -5.238957,-27.606594 h 0.01499 4.411617 z" />
      <path
         id="path858"
         style="font-style:normal;font-variant:normal;font-weight:bold;font-stretch:normal;font-size:50.8px;font-family:'Myanmar Text';-inkscape-font-specification:'Myanmar Text Bold';fill:#3a75a5;fill-opacity:1;stroke:#ffffff;stroke-width:1.37;stroke-miterlimit:4;stroke-dasharray:none;stroke-opacity:1"
         d="M 8.696914,0.685 C 3.355638,8.6706364 0.685,17.872835 0.685,28.291594 c 0,10.79309 2.670638,19.891305 8.011914,27.294656 h 1.938383 4.461226 C 11.580748,47.434242 9.822944,38.336027 9.822944,28.291594 9.822944,18.247161 11.569178,9.0449627 15.0619,0.685 c -1.475536,0 -2.951071,0 -4.426607,0 z"
         sodipodi:nodetypes="cscccsccc" />
      <g
         aria-label="-:ssp"
         id="text1330-5"
         style="font-style:normal;font-variant:normal;font-weight:bold;font-stretch:normal;font-size:50.8px;line-height:1.25;font-family:'UD Digi Kyokasho NK-B';-inkscape-font-specification:'UD Digi Kyokasho NK-B Bold';fill:#cccccc;stroke:#ffffff;stroke-width:1.37;stroke-miterlimit:4;stroke-dasharray:none;stroke-opacity:1"
         transform="translate(3.5954167,0.685)">
        <path
           d="m 13.303583,23.6307 h 17.140039 q 0.942578,0 1.5875,0.620117 0.843359,0.84336 0.843359,2.331641 0,1.909961 -1.289843,2.654102 -0.520899,0.297656 -1.141016,0.297656 H 13.303583 q -0.967383,0 -1.612304,-0.644922 -0.868164,-0.843359 -0.868164,-2.331641 0,-1.984375 1.389062,-2.678906 0.471289,-0.248047 1.091406,-0.248047 z"
           style="font-style:normal;font-variant:normal;font-weight:bold;font-stretch:normal;font-size:50.8px;font-family:'UD Digi Kyokasho NK-B';-inkscape-font-specification:'UD Digi Kyokasho NK-B Bold';fill:#3fa73f;fill-opacity:1;stroke:#ffffff;stroke-width:1.37;stroke-miterlimit:4;stroke-dasharray:none;stroke-opacity:1"
           id="path1350" />
        <path
           style="font-style:normal;font-variant:normal;font-weight:bold;font-stretch:normal;font-size:50.8px;font-family:'UD Digi Kyokasho NK-B';-inkscape-font-specification:'UD Digi Kyokasho NK-B Bold';fill:#cccccc;stroke:#ffffff;stroke-width:1.49984;stroke-miterlimit:4;stroke-dasharray:none;stroke-opacity:1"
           d="m 45.69833,34.713286 q 1.00272,0 1.932072,0.542738 2.616856,1.537758 2.616856,5.095709 0,1.356845 -0.538045,2.623235 -1.271744,2.98506 -4.059796,2.98506 -1.491853,0 -2.690226,-1.115628 -1.834245,-1.718671 -1.834245,-4.552971 0,-2.351866 1.394026,-4.010232 1.345113,-1.567911 3.179358,-1.567911 z"
           id="path1445" />
        <path
           style="font-style:normal;font-variant:normal;font-weight:bold;font-stretch:normal;font-size:50.8px;font-family:'UD Digi Kyokasho NK-B';-inkscape-font-specification:'UD Digi Kyokasho NK-B Bold';fill:#cccccc;stroke:#ffffff;stroke-width:1.49984;stroke-miterlimit:4;stroke-dasharray:none;stroke-opacity:1"
           d="m 45.69833,16.829106 q 1.00272,0 1.932072,0.542739 2.616856,1.567911 2.616856,5.095709 0,1.356845 -0.538045,2.623235 -1.271744,2.98506 -4.059796,2.98506 -1.491853,0 -2.690226,-1.115629 -1.834245,-1.718671 -1.834245,-4.55297 0,-2.351866 1.394026,-4.010233 1.345113,-1.567911 3.179358,-1.567911 z"
           id="path1352" />
        <path
           d="m 68.791668,17.379919 q 5.382617,0 8.632031,2.257227 1.761132,1.215429 1.761132,2.877343 0,0.967383 -0.595312,1.810742 -0.818555,1.116211 -2.232422,1.116211 -0.917773,0 -2.033984,-0.868164 -2.530078,-1.95957 -5.630664,-1.95957 -4.01836,0 -4.01836,2.282031 0,1.339453 1.438672,2.083594 0.471289,0.223242 1.612305,0.595312 6.72207,2.05879 8.30957,2.85254 4.142383,2.058789 4.142383,6.573242 0,4.191992 -3.323828,6.424414 -2.902149,1.934765 -7.863086,1.934765 -5.680273,0 -9.351367,-2.579687 -2.38125,-1.686719 -2.38125,-3.522266 0,-0.868164 0.570508,-1.686719 0.79375,-1.116211 2.108398,-1.116211 1.041797,0 1.959571,0.868165 2.778124,2.654101 7.044531,2.654101 4.440039,0 4.440039,-2.38125 0,-1.612305 -2.232422,-2.703711 -1.438672,-0.669726 -6.920508,-2.356445 -5.953125,-1.810742 -5.953125,-7.267773 0,-4.266407 4.092774,-6.474024 2.604492,-1.413867 6.424414,-1.413867 z"
           style="font-style:normal;font-variant:normal;font-weight:bold;font-stretch:normal;font-size:50.8px;font-family:'UD Digi Kyokasho NK-B';-inkscape-font-specification:'UD Digi Kyokasho NK-B Bold';fill:#cccccc;stroke:#ffffff;stroke-width:1.37;stroke-miterlimit:4;stroke-dasharray:none;stroke-opacity:1"
           id="path1354" />
        <path
           d="m 96.22565,17.379919 q 5.38262,0 8.63203,2.257227 1.76113,1.215429 1.76113,2.877343 0,0.967383 -0.59531,1.810742 -0.81855,1.116211 -2.23242,1.116211 -0.91777,0 -2.03398,-0.868164 -2.530082,-1.95957 -5.630668,-1.95957 -4.01836,0 -4.01836,2.282031 0,1.339453 1.438672,2.083594 0.471289,0.223242 1.612305,0.595312 6.722071,2.05879 8.309571,2.85254 4.14238,2.058789 4.14238,6.573242 0,4.191992 -3.32383,6.424414 -2.90214,1.934765 -7.863082,1.934765 -5.680273,0 -9.351367,-2.579687 -2.38125,-1.686719 -2.38125,-3.522266 0,-0.868164 0.570508,-1.686719 0.79375,-1.116211 2.108398,-1.116211 1.041797,0 1.95957,0.868165 2.778125,2.654101 7.044532,2.654101 4.440041,0 4.440041,-2.38125 0,-1.612305 -2.232424,-2.703711 -1.438672,-0.669726 -6.920508,-2.356445 -5.953125,-1.810742 -5.953125,-7.267773 0,-4.266407 4.092773,-6.474024 2.604493,-1.413867 6.424414,-1.413867 z"
           style="font-style:normal;font-variant:normal;font-weight:bold;font-stretch:normal;font-size:50.8px;font-family:'UD Digi Kyokasho NK-B';-inkscape-font-specification:'UD Digi Kyokasho NK-B Bold';fill:#cccccc;stroke:#ffffff;stroke-width:1.37;stroke-miterlimit:4;stroke-dasharray:none;stroke-opacity:1"
           id="path1356" />
        <path
           d="m 120.55905,41.911755 v 11.48457 q 0,0.967383 -0.59531,1.661914 -0.91777,1.066601 -2.62929,1.066601 -1.90997,0 -2.77813,-1.339453 -0.39687,-0.595312 -0.39687,-1.389062 V 20.430896 q 0,-1.116211 0.5457,-1.785938 0.71933,-0.917773 2.1332,-0.917773 2.25723,0 2.70371,2.38125 l 0.39688,2.133203 q 0.96738,-1.885156 2.70371,-3.050977 2.50527,-1.661914 5.8539,-1.661914 6.3252,0 9.74825,5.109766 2.43086,3.621484 2.43086,8.805664 0,5.060156 -2.6293,8.756054 -3.59668,5.060156 -9.77305,5.060156 -5.08496,0 -7.71426,-3.348632 z m -0.0496,-10.914063 v 1.959571 q 0,2.827734 2.05878,4.886523 2.00918,2.033984 4.7129,2.033984 3.175,0 5.08496,-2.654101 1.66191,-2.306836 1.66191,-5.754688 0,-3.497461 -1.5627,-5.779492 -1.88515,-2.728515 -5.13457,-2.728515 -2.77812,0 -4.8121,2.430859 -2.00918,2.406055 -2.00918,5.605859 z"
           style="font-style:normal;font-variant:normal;font-weight:bold;font-stretch:normal;font-size:50.8px;font-family:'UD Digi Kyokasho NK-B';-inkscape-font-specification:'UD Digi Kyokasho NK-B Bold';fill:#cccccc;stroke:#ffffff;stroke-width:1.37;stroke-miterlimit:4;stroke-dasharray:none;stroke-opacity:1"
           id="path1358" />
      </g>
    </g>
  </g>
</svg>
