<!--
Copyright 2020 Matthew Egan Odendahl
For distribution with unmodified Hissp documentation only.
-->
<svg width="144.96mm" height="57.495mm" enable-background="new" version="1.1" viewBox="0 0 144.96 57.495" xmlns="http://www.w3.org/2000/svg" xmlns:xlink="http://www.w3.org/1999/xlink">
 <defs>
  <linearGradient id="a">
   <stop stop-color="#fff" offset="0"/>
   <stop offset="1"/>
  </linearGradient>
  <linearGradient id="e" x1="44.72" x2="50.668" y1="41.022" y2="41.022" gradientUnits="userSpaceOnUse" spreadMethod="reflect">
   <stop offset="0"/>
   <stop stop-color="#fff" offset="1"/>
  </linearGradient>
  <radialGradient id="c" cx="50.697" cy="21.233" r="4.5612" gradientTransform="matrix(1.5509 0 0 2.4513 -28.023 -31.026)" gradientUnits="userSpaceOnUse" xlink:href="#a"/>
  <filter id="i" color-interpolation-filters="sRGB">
   <feBlend in2="BackgroundImage" mode="overlay"/>
  </filter>
  <linearGradient id="h" x1=".685" x2="15.097" y1="28.136" y2="28.136" gradientUnits="userSpaceOnUse">
   <stop stop-color="#1b3775" offset="0"/>
   <stop stop-color="#55add0" offset="1"/>
  </linearGradient>
  <linearGradient id="g" x1="14.419" x2="36.47" y1="27.267" y2="27.267" gradientUnits="userSpaceOnUse">
   <stop stop-color="#1d771d" offset="0"/>
   <stop stop-color="#63da63" offset="1"/>
  </linearGradient>
  <linearGradient id="f" x1="135.34" x2="189.72" y1="106.34" y2="106.34" gradientUnits="userSpaceOnUse">
   <stop stop-color="#ffbf1d" offset="0"/>
   <stop stop-color="#ffec5d" offset="1"/>
  </linearGradient>
  <radialGradient id="b" cx="50.272" cy="21.85" r="4.5612" gradientTransform="matrix(3.3493 -2.6744e-7 2.6288e-7 3.2921 -118.1 -50.383)" gradientUnits="userSpaceOnUse" xlink:href="#a"/>
  <linearGradient id="d" x1="50.146" x2="63.571" y1="41.022" y2="41.022" gradientUnits="userSpaceOnUse" xlink:href="#a" spreadMethod="reflect"/>
 </defs>
 <g>
  <g>
   <path d="m8.6969 0.685c-5.3413 7.9856-8.0119 17.188-8.0119 27.607 0 10.793 2.6706 19.891 8.0119 27.295h6.3996c-3.5158-8.152-5.2736-17.25-5.2736-27.295s1.7462-19.247 5.239-27.607h-4.4266z" fill="url(#h)"/>
   <path d="m16.899 24.316h17.14q0.94258 0 1.5875 0.62012 0.84336 0.84336 0.84336 2.3316 0 1.91-1.2898 2.6541-0.5209 0.29766-1.141 0.29766h-17.14q-0.96738 0-1.6123-0.64492-0.86816-0.84336-0.86816-2.3316 0-1.9844 1.3891-2.6789 0.47129-0.24805 1.0914-0.24805z" fill="url(#g)"/>
   <path d="m49.294 17.514c-1.2228 0-2.2824 0.52259-3.1791 1.5679-0.92935 1.1056-1.3942 2.4422-1.3942 4.0101 0 1.8895 0.61168 3.4074 1.8345 4.5532 0.79892 0.74375 1.6957 1.1157 2.6903 1.1157 1.8587 0 3.2119-0.99531 4.0597-2.9853 0.3587-0.84426 0.53795-1.7185 0.53795-2.6231 0-2.3519-0.87232-4.0505-2.6169-5.0958-0.61957-0.36183-1.2637-0.5426-1.9322-0.5426z" fill="url(#b)"/>
   <path d="m49.294 35.398c-1.2228 0-2.2824 0.52259-3.1791 1.5679-0.92935 1.1056-1.3942 2.4422-1.3942 4.0101 0 1.8895 0.61168 3.4074 1.8345 4.5532 0.79892 0.74375 1.6957 1.1157 2.6903 1.1157 1.8587 0 3.2119-0.99531 4.0597-2.9854 0.3587-0.84426 0.53795-1.7185 0.53795-2.6231 0-2.372-0.87232-4.0706-2.6169-5.0958-0.61957-0.36182-1.2637-0.5426-1.9322-0.5426z" fill="url(#d)"/>
  </g>
  <g fill="#ccc">
   <path d="m72.387 18.065q5.3826 0 8.632 2.2572 1.7611 1.2154 1.7611 2.8773 0 0.96738-0.59531 1.8107-0.81856 1.1162-2.2324 1.1162-0.91777 0-2.034-0.86816-2.5301-1.9596-5.6307-1.9596-4.0184 0-4.0184 2.282 0 1.3395 1.4387 2.0836 0.47129 0.22324 1.6123 0.59531 6.7221 2.0588 8.3096 2.8525 4.1424 2.0588 4.1424 6.5732 0 4.192-3.3238 6.4244-2.9021 1.9348-7.8631 1.9348-5.6803 0-9.3514-2.5797-2.3812-1.6867-2.3812-3.5223 0-0.86816 0.57051-1.6867 0.79375-1.1162 2.1084-1.1162 1.0418 0 1.9596 0.86816 2.7781 2.6541 7.0445 2.6541 4.44 0 4.44-2.3812 0-1.6123-2.2324-2.7037-1.4387-0.66973-6.9205-2.3564-5.9531-1.8107-5.9531-7.2678 0-4.2664 4.0928-6.474 2.6045-1.4139 6.4244-1.4139z"/>
   <path d="m99.821 18.065q5.3826 0 8.632 2.2572 1.7611 1.2154 1.7611 2.8773 0 0.96738-0.59531 1.8107-0.81855 1.1162-2.2324 1.1162-0.91777 0-2.034-0.86816-2.5301-1.9596-5.6307-1.9596-4.0184 0-4.0184 2.282 0 1.3395 1.4387 2.0836 0.47129 0.22324 1.6123 0.59531 6.7221 2.0588 8.3096 2.8525 4.1424 2.0588 4.1424 6.5732 0 4.192-3.3238 6.4244-2.9021 1.9348-7.8631 1.9348-5.6803 0-9.3514-2.5797-2.3812-1.6867-2.3812-3.5223 0-0.86816 0.57051-1.6867 0.79375-1.1162 2.1084-1.1162 1.0418 0 1.9596 0.86816 2.7781 2.6541 7.0445 2.6541 4.44 0 4.44-2.3812 0-1.6123-2.2324-2.7037-1.4387-0.66973-6.9205-2.3564-5.9531-1.8107-5.9531-7.2678 0-4.2664 4.0928-6.474 2.6045-1.4139 6.4244-1.4139z"/>
   <path d="m124.15 42.597v11.485q0 0.96738-0.59531 1.6619-0.91777 1.0666-2.6293 1.0666-1.91 0-2.7781-1.3395-0.39687-0.59531-0.39687-1.3891v-32.965q0-1.1162 0.5457-1.7859 0.71933-0.91777 2.1332-0.91777 2.2572 0 2.7037 2.3812l0.39688 2.1332q0.96738-1.8852 2.7037-3.051 2.5053-1.6619 5.8539-1.6619 6.3252 0 9.7482 5.1098 2.4309 3.6215 2.4309 8.8057 0 5.0602-2.6293 8.7561-3.5967 5.0602-9.773 5.0602-5.085 0-7.7143-3.3486zm-0.0496-10.914v1.9596q0 2.8277 2.0588 4.8865 2.0092 2.034 4.7129 2.034 3.175 0 5.085-2.6541 1.6619-2.3068 1.6619-5.7547 0-3.4975-1.5627-5.7795-1.8852-2.7285-5.1346-2.7285-2.7781 0-4.8121 2.4309-2.0092 2.4061-2.0092 5.6059z"/>
  </g>
  <path transform="scale(.26458)" d="m135.47 2.5898c13.201 31.597 19.801 66.377 19.801 104.34 0 37.963-6.6437 72.349-19.932 103.16h24.188c7.0197-9.7298 12.816-20.237 17.395-31.516-1.4884-0.82608-2.8983-1.8348-4.1856-3.0332l-8e-3 -6e-3 -8e-3 -8e-3c-5.5673-5.2165-8.4219-12.493-8.4219-20.654 0-6.8598 2.157-13.177 6.377-18.197l0.0156-0.0215 0.0156-0.0156c4.08-4.7558 9.6299-7.5742 15.598-7.5742 0.81565 0 1.6282 0.0592 2.4336 0.16797 0.5192-5.2572 0.84383-10.639 0.98438-16.137-1.1696 0.21336-2.3708 0.33399-3.6035 0.33399-4.9369 0-9.6477-2.0072-13.383-5.4844l-8e-3 -8e-3 -8e-3 -6e-3c-5.5673-5.2165-8.4219-12.495-8.4219-20.656 0-6.8598 2.157-13.175 6.377-18.195l0.0156-0.01563 0.0156-0.02148c3.7536-4.3753 8.7512-7.104 14.174-7.5137-4.8573-21.283-13.307-40.929-25.353-58.939h-24z" fill="url(#f)"/>
 </g>
 <g display="none" filter="url(#i)" opacity=".6">
  <path d="m49.294 17.514c-1.2228 0-2.2824 0.52259-3.1791 1.5679-0.92935 1.1056-1.3942 2.4422-1.3942 4.0101 0 1.8895 0.61168 3.4074 1.8345 4.5532 0.79892 0.74375 1.6957 1.1157 2.6903 1.1157 1.8587 0 3.2119-0.99531 4.0597-2.9853 0.3587-0.84426 0.53795-1.7185 0.53795-2.6231 0-2.3519-0.87232-4.0505-2.6169-5.0958-0.61957-0.36183-1.2637-0.5426-1.9322-0.5426z" display="inline" fill="url(#c)"/>
  <path d="m49.294 35.398c-1.2228 0-2.2824 0.52259-3.1791 1.5679-0.92935 1.1056-1.3942 2.4422-1.3942 4.0101 0 1.8895 0.61168 3.4074 1.8345 4.5532 0.79892 0.74375 1.6957 1.1157 2.6903 1.1157 1.8587 0 3.2119-0.99531 4.0597-2.9854 0.3587-0.84426 0.53795-1.7185 0.53795-2.6231 0-2.372-0.87232-4.0706-2.6169-5.0958-0.61957-0.36182-1.2637-0.5426-1.9322-0.5426z" display="inline" fill="url(#e)"/>
 </g>
</svg>
